<svg width="24" height="24" viewBox="0 0 24 24" fill="none" xmlns="http://www.w3.org/2000/svg">
<circle cx="12" cy="12" r="12" fill="#1F305F"/>
<path d="M6.88068 8.72727H7.93182L10.4034 14.7642H10.4886L12.9602 8.72727H14.0114V16H13.1875V10.4744H13.1165L10.8438 16H10.0483L7.77557 10.4744H7.70455V16H6.88068V8.72727ZM15.6635 16V10.5455H16.4732V11.3693H16.53C16.6294 11.0994 16.8094 10.8804 17.0698 10.7124C17.3302 10.5443 17.6238 10.4602 17.9505 10.4602C18.012 10.4602 18.089 10.4614 18.1813 10.4638C18.2736 10.4661 18.3435 10.4697 18.3908 10.4744V11.3267C18.3624 11.3196 18.2973 11.3089 18.1955 11.2947C18.0961 11.2782 17.9907 11.2699 17.8794 11.2699C17.6143 11.2699 17.3775 11.3255 17.1692 11.4368C16.9632 11.5457 16.7999 11.6972 16.6792 11.8913C16.5608 12.0831 16.5016 12.3021 16.5016 12.5483V16H15.6635Z" fill="white"/>
</svg>
