<svg width="24" height="24" viewBox="0 0 24 24" fill="none" xmlns="http://www.w3.org/2000/svg">
<circle cx="12" cy="12" r="12" fill="#4DB33D"/>
<path d="M5.88068 7.72727H6.93182L9.40341 13.7642H9.48864L11.9602 7.72727H13.0114V15H12.1875V9.47443H12.1165L9.84375 15H9.0483L6.77557 9.47443H6.70455V15H5.88068V7.72727ZM16.8652 17.1591C16.4604 17.1591 16.1124 17.107 15.8212 17.0028C15.53 16.901 15.2873 16.7661 15.0932 16.598C14.9015 16.4323 14.7488 16.2547 14.6351 16.0653L15.3027 15.5966C15.3785 15.696 15.4744 15.8097 15.5904 15.9375C15.7064 16.0677 15.865 16.1802 16.0662 16.2749C16.2698 16.3719 16.5362 16.4205 16.8652 16.4205C17.3056 16.4205 17.669 16.3139 17.9554 16.1009C18.2419 15.8878 18.3851 15.554 18.3851 15.0994V13.9915H18.3141C18.2525 14.0909 18.165 14.214 18.0513 14.3608C17.94 14.5052 17.7791 14.6342 17.5684 14.7479C17.36 14.8591 17.0783 14.9148 16.7232 14.9148C16.2828 14.9148 15.8875 14.8106 15.5371 14.6023C15.1891 14.3939 14.9133 14.0909 14.7097 13.6932C14.5085 13.2955 14.4078 12.8125 14.4078 12.2443C14.4078 11.6856 14.5061 11.1991 14.7026 10.7848C14.8991 10.3681 15.1725 10.0462 15.5229 9.81889C15.8733 9.58925 16.2781 9.47443 16.7374 9.47443C17.0925 9.47443 17.3742 9.53362 17.5826 9.65199C17.7933 9.76799 17.9542 9.90057 18.0655 10.0497C18.1792 10.1965 18.2667 10.3172 18.3283 10.4119H18.4135V9.54545H19.2232V15.1562C19.2232 15.625 19.1167 16.0062 18.9036 16.2997C18.6929 16.5956 18.4088 16.8123 18.0513 16.9496C17.6962 17.0893 17.3008 17.1591 16.8652 17.1591ZM16.8368 14.1619C17.173 14.1619 17.4571 14.085 17.6891 13.9311C17.9211 13.7772 18.0975 13.5559 18.2182 13.267C18.339 12.9782 18.3993 12.6326 18.3993 12.2301C18.3993 11.8371 18.3401 11.4903 18.2218 11.1896C18.1034 10.889 17.9282 10.6534 17.6962 10.483C17.4642 10.3125 17.1777 10.2273 16.8368 10.2273C16.4817 10.2273 16.1858 10.3172 15.949 10.4972C15.7147 10.6771 15.5383 10.9186 15.4199 11.2216C15.3039 11.5246 15.2459 11.8608 15.2459 12.2301C15.2459 12.6089 15.3051 12.9439 15.4235 13.2351C15.5442 13.5239 15.7218 13.7512 15.9561 13.9169C16.1929 14.0803 16.4864 14.1619 16.8368 14.1619Z" fill="white"/>
</svg>
