<svg width="24" height="24" viewBox="0 0 24 24" fill="none" xmlns="http://www.w3.org/2000/svg">
<circle cx="12" cy="12" r="12" fill="#CC2927"/>
<path d="M10.858 10.5455C10.8153 10.1856 10.6425 9.90625 10.3395 9.70739C10.0365 9.50852 9.66477 9.40909 9.22443 9.40909C8.90246 9.40909 8.62074 9.46117 8.37926 9.56534C8.14015 9.66951 7.95313 9.81274 7.81818 9.99503C7.68561 10.1773 7.61932 10.3845 7.61932 10.6165C7.61932 10.8106 7.66548 10.9775 7.75781 11.1172C7.85251 11.2545 7.97325 11.3693 8.12003 11.4616C8.26681 11.5516 8.42069 11.6262 8.58168 11.6854C8.74266 11.7422 8.89062 11.7884 9.02557 11.8239L9.7642 12.0227C9.9536 12.0724 10.1643 12.1411 10.3963 12.2287C10.6307 12.3163 10.8544 12.4358 11.0675 12.5874C11.2829 12.7365 11.4605 12.9283 11.6001 13.1626C11.7398 13.397 11.8097 13.6847 11.8097 14.0256C11.8097 14.4186 11.7067 14.7737 11.5007 15.0909C11.2971 15.4081 10.9988 15.6603 10.6058 15.8473C10.2152 16.0343 9.74053 16.1278 9.18182 16.1278C8.66098 16.1278 8.20999 16.0438 7.82884 15.8757C7.45005 15.7076 7.15175 15.4732 6.93395 15.1726C6.71851 14.8719 6.59659 14.5227 6.56818 14.125H7.47727C7.50095 14.3996 7.59328 14.6269 7.75426 14.8068C7.91761 14.9844 8.12358 15.117 8.37216 15.2045C8.62311 15.2898 8.89299 15.3324 9.18182 15.3324C9.51799 15.3324 9.81984 15.2779 10.0874 15.169C10.3549 15.0578 10.5668 14.9039 10.723 14.7074C10.8793 14.5085 10.9574 14.2765 10.9574 14.0114C10.9574 13.7699 10.8899 13.5734 10.755 13.4219C10.62 13.2704 10.4425 13.1473 10.2223 13.0526C10.0021 12.9579 9.7642 12.875 9.50852 12.804L8.61364 12.5483C8.04545 12.3849 7.59564 12.1518 7.2642 11.8487C6.93277 11.5457 6.76705 11.1491 6.76705 10.6591C6.76705 10.2519 6.87713 9.89678 7.0973 9.59375C7.31984 9.28835 7.61813 9.05161 7.99219 8.88352C8.36861 8.71307 8.78883 8.62784 9.25284 8.62784C9.72159 8.62784 10.1383 8.71188 10.5028 8.87997C10.8674 9.04569 11.1563 9.27296 11.3693 9.56179C11.5848 9.85062 11.6984 10.1785 11.7102 10.5455H10.858ZM17.0076 11.767L16.2548 11.9801C16.2074 11.8546 16.1376 11.7327 16.0453 11.6143C15.9553 11.4936 15.8322 11.3942 15.676 11.3161C15.5197 11.2379 15.3197 11.1989 15.0758 11.1989C14.742 11.1989 14.4638 11.2758 14.2413 11.4297C14.0211 11.5812 13.911 11.7741 13.911 12.0085C13.911 12.2169 13.9868 12.3814 14.1383 12.5021C14.2898 12.6229 14.5266 12.7235 14.8485 12.804L15.6582 13.0028C16.1459 13.1212 16.5093 13.3023 16.7484 13.5462C16.9875 13.7876 17.1071 14.099 17.1071 14.4801C17.1071 14.7926 17.0171 15.072 16.8372 15.3182C16.6596 15.5644 16.411 15.7585 16.0914 15.9006C15.7718 16.0426 15.4002 16.1136 14.9764 16.1136C14.42 16.1136 13.9596 15.9929 13.595 15.7514C13.2304 15.5099 12.9996 15.1572 12.9025 14.6932L13.698 14.4943C13.7737 14.7879 13.917 15.008 14.1277 15.1548C14.3407 15.3016 14.6189 15.375 14.9622 15.375C15.3528 15.375 15.6629 15.2921 15.8926 15.1264C16.1246 14.9583 16.2406 14.7571 16.2406 14.5227C16.2406 14.3333 16.1743 14.1747 16.0417 14.0469C15.9092 13.9167 15.7056 13.8196 15.4309 13.7557L14.5218 13.5426C14.0223 13.4242 13.6554 13.2408 13.421 12.9922C13.189 12.7412 13.073 12.4276 13.073 12.0511C13.073 11.7434 13.1594 11.4711 13.3322 11.2344C13.5074 10.9976 13.7453 10.8118 14.046 10.6768C14.349 10.5419 14.6923 10.4744 15.0758 10.4744C15.6156 10.4744 16.0394 10.5928 16.3471 10.8295C16.6573 11.0663 16.8774 11.3788 17.0076 11.767Z" fill="white"/>
</svg>
