<svg width="24" height="24" viewBox="0 0 24 24" fill="none" xmlns="http://www.w3.org/2000/svg">
<circle cx="12" cy="12" r="12" fill="#00758F"/>
<path d="M5.88068 8.72727H6.93182L9.40341 14.7642H9.48864L11.9602 8.72727H13.0114V16H12.1875V10.4744H12.1165L9.84375 16H9.0483L6.77557 10.4744H6.70455V16H5.88068V8.72727ZM18.5272 11.767L17.7743 11.9801C17.727 11.8546 17.6571 11.7327 17.5648 11.6143C17.4748 11.4936 17.3517 11.3942 17.1955 11.3161C17.0392 11.2379 16.8392 11.1989 16.5953 11.1989C16.2615 11.1989 15.9834 11.2758 15.7608 11.4297C15.5407 11.5812 15.4306 11.7741 15.4306 12.0085C15.4306 12.2169 15.5063 12.3814 15.6578 12.5021C15.8094 12.6229 16.0461 12.7235 16.3681 12.804L17.1777 13.0028C17.6654 13.1212 18.0288 13.3023 18.2679 13.5462C18.507 13.7876 18.6266 14.099 18.6266 14.4801C18.6266 14.7926 18.5366 15.072 18.3567 15.3182C18.1792 15.5644 17.9306 15.7585 17.611 15.9006C17.2914 16.0426 16.9197 16.1136 16.4959 16.1136C15.9396 16.1136 15.4791 15.9929 15.1145 15.7514C14.7499 15.5099 14.5191 15.1572 14.4221 14.6932L15.2175 14.4943C15.2933 14.7879 15.4365 15.008 15.6472 15.1548C15.8603 15.3016 16.1384 15.375 16.4817 15.375C16.8723 15.375 17.1825 15.2921 17.4121 15.1264C17.6441 14.9583 17.7601 14.7571 17.7601 14.5227C17.7601 14.3333 17.6938 14.1747 17.5613 14.0469C17.4287 13.9167 17.2251 13.8196 16.9505 13.7557L16.0414 13.5426C15.5418 13.4242 15.1749 13.2408 14.9405 12.9922C14.7085 12.7412 14.5925 12.4276 14.5925 12.0511C14.5925 11.7434 14.6789 11.4711 14.8517 11.2344C15.0269 10.9976 15.2649 10.8118 15.5655 10.6768C15.8685 10.5419 16.2118 10.4744 16.5953 10.4744C17.1351 10.4744 17.5589 10.5928 17.8667 10.8295C18.1768 11.0663 18.397 11.3788 18.5272 11.767Z" fill="white"/>
</svg>
