<svg width="24" height="24" viewBox="0 0 24 24" fill="none" xmlns="http://www.w3.org/2000/svg">
<circle cx="12" cy="12" r="12" fill="#F80000"/>
<path d="M13.017 12.3636C13.017 13.1307 12.8786 13.7936 12.6016 14.3523C12.3246 14.911 11.9446 15.3419 11.4616 15.6449C10.9787 15.9479 10.4271 16.0994 9.80682 16.0994C9.18655 16.0994 8.63494 15.9479 8.15199 15.6449C7.66903 15.3419 7.28906 14.911 7.01207 14.3523C6.73509 13.7936 6.59659 13.1307 6.59659 12.3636C6.59659 11.5966 6.73509 10.9337 7.01207 10.375C7.28906 9.81629 7.66903 9.38542 8.15199 9.08239C8.63494 8.77936 9.18655 8.62784 9.80682 8.62784C10.4271 8.62784 10.9787 8.77936 11.4616 9.08239C11.9446 9.38542 12.3246 9.81629 12.6016 10.375C12.8786 10.9337 13.017 11.5966 13.017 12.3636ZM12.1648 12.3636C12.1648 11.7339 12.0594 11.2024 11.8487 10.7692C11.6404 10.3359 11.3575 10.008 11 9.78551C10.6449 9.56297 10.2472 9.4517 9.80682 9.4517C9.36648 9.4517 8.96757 9.56297 8.61009 9.78551C8.25497 10.008 7.97206 10.3359 7.76136 10.7692C7.55303 11.2024 7.44886 11.7339 7.44886 12.3636C7.44886 12.9934 7.55303 13.5249 7.76136 13.9581C7.97206 14.3913 8.25497 14.7192 8.61009 14.9418C8.96757 15.1643 9.36648 15.2756 9.80682 15.2756C10.2472 15.2756 10.6449 15.1643 11 14.9418C11.3575 14.7192 11.6404 14.3913 11.8487 13.9581C12.0594 13.5249 12.1648 12.9934 12.1648 12.3636ZM14.3842 16V10.5455H15.1939V11.3693H15.2507C15.3501 11.0994 15.5301 10.8804 15.7905 10.7124C16.0509 10.5443 16.3445 10.4602 16.6712 10.4602C16.7327 10.4602 16.8097 10.4614 16.902 10.4638C16.9943 10.4661 17.0642 10.4697 17.1115 10.4744V11.3267C17.0831 11.3196 17.018 11.3089 16.9162 11.2947C16.8168 11.2782 16.7114 11.2699 16.6001 11.2699C16.335 11.2699 16.0982 11.3255 15.8899 11.4368C15.6839 11.5457 15.5206 11.6972 15.3999 11.8913C15.2815 12.0831 15.2223 12.3021 15.2223 12.5483V16H14.3842Z" fill="white"/>
</svg>
