<svg width="24" height="24" viewBox="0 0 24 24" fill="none" xmlns="http://www.w3.org/2000/svg">
<circle cx="12" cy="12" r="12" fill="#336791"/>
<path d="M6.88068 15V7.72727H9.33807C9.90862 7.72727 10.375 7.83026 10.7372 8.03622C11.1018 8.23982 11.3717 8.51562 11.5469 8.86364C11.7221 9.21165 11.8097 9.59991 11.8097 10.0284C11.8097 10.4569 11.7221 10.8464 11.5469 11.1967C11.3741 11.5471 11.1065 11.8265 10.7443 12.0348C10.3821 12.2408 9.91809 12.3438 9.35227 12.3438H7.59091V11.5625H9.32386C9.71449 11.5625 10.0282 11.495 10.2649 11.3601C10.5017 11.2251 10.6733 11.0429 10.7798 10.8132C10.8887 10.5812 10.9432 10.3196 10.9432 10.0284C10.9432 9.73722 10.8887 9.4768 10.7798 9.24716C10.6733 9.01752 10.5005 8.83759 10.2614 8.70739C10.0223 8.57481 9.70502 8.50852 9.30966 8.50852H7.76136V15H6.88068ZM15.2578 17.1591C14.853 17.1591 14.505 17.107 14.2138 17.0028C13.9226 16.901 13.6799 16.7661 13.4858 16.598C13.294 16.4323 13.1413 16.2547 13.0277 16.0653L13.6953 15.5966C13.7711 15.696 13.867 15.8097 13.983 15.9375C14.099 16.0677 14.2576 16.1802 14.4588 16.2749C14.6624 16.3719 14.9287 16.4205 15.2578 16.4205C15.6982 16.4205 16.0616 16.3139 16.348 16.1009C16.6345 15.8878 16.7777 15.554 16.7777 15.0994V13.9915H16.7067C16.6451 14.0909 16.5575 14.214 16.4439 14.3608C16.3326 14.5052 16.1716 14.6342 15.9609 14.7479C15.7526 14.8591 15.4709 14.9148 15.1158 14.9148C14.6754 14.9148 14.2801 14.8106 13.9297 14.6023C13.5817 14.3939 13.3059 14.0909 13.1023 13.6932C12.901 13.2955 12.8004 12.8125 12.8004 12.2443C12.8004 11.6856 12.8987 11.1991 13.0952 10.7848C13.2917 10.3681 13.5651 10.0462 13.9155 9.81889C14.2659 9.58925 14.6707 9.47443 15.13 9.47443C15.4851 9.47443 15.7668 9.53362 15.9751 9.65199C16.1858 9.76799 16.3468 9.90057 16.4581 10.0497C16.5717 10.1965 16.6593 10.3172 16.7209 10.4119H16.8061V9.54545H17.6158V15.1562C17.6158 15.625 17.5092 16.0062 17.2962 16.2997C17.0855 16.5956 16.8014 16.8123 16.4439 16.9496C16.0888 17.0893 15.6934 17.1591 15.2578 17.1591ZM15.2294 14.1619C15.5656 14.1619 15.8497 14.085 16.0817 13.9311C16.3137 13.7772 16.4901 13.5559 16.6108 13.267C16.7315 12.9782 16.7919 12.6326 16.7919 12.2301C16.7919 11.8371 16.7327 11.4903 16.6143 11.1896C16.496 10.889 16.3208 10.6534 16.0888 10.483C15.8568 10.3125 15.5703 10.2273 15.2294 10.2273C14.8743 10.2273 14.5784 10.3172 14.3416 10.4972C14.1072 10.6771 13.9309 10.9186 13.8125 11.2216C13.6965 11.5246 13.6385 11.8608 13.6385 12.2301C13.6385 12.6089 13.6977 12.9439 13.8161 13.2351C13.9368 13.5239 14.1143 13.7512 14.3487 13.9169C14.5855 14.0803 14.879 14.1619 15.2294 14.1619Z" fill="white"/>
</svg>
