<svg width="24" height="24" viewBox="0 0 24 24" fill="none" xmlns="http://www.w3.org/2000/svg">
<circle cx="12" cy="12" r="12" fill="#D82C20"/>
<path d="M6.88068 16V8.72727H9.33807C9.90625 8.72727 10.3726 8.82434 10.7372 9.01847C11.1018 9.21023 11.3717 9.47419 11.5469 9.81037C11.7221 10.1465 11.8097 10.5289 11.8097 10.9574C11.8097 11.3859 11.7221 11.7659 11.5469 12.0973C11.3717 12.4287 11.103 12.6892 10.7408 12.8786C10.3786 13.0656 9.91572 13.1591 9.35227 13.1591H7.36364V12.3636H9.32386C9.71212 12.3636 10.0246 12.3068 10.2614 12.1932C10.5005 12.0795 10.6733 11.9186 10.7798 11.7102C10.8887 11.4995 10.9432 11.2486 10.9432 10.9574C10.9432 10.6662 10.8887 10.4117 10.7798 10.1939C10.6709 9.97609 10.4969 9.808 10.2578 9.68963C10.0187 9.56889 9.70265 9.50852 9.30966 9.50852H7.76136V16H6.88068ZM10.304 12.733L12.0938 16H11.071L9.30966 12.733H10.304ZM15.3919 16.1136C14.8663 16.1136 14.4129 15.9976 14.0318 15.7656C13.653 15.5312 13.3606 15.2045 13.1547 14.7855C12.9511 14.3641 12.8493 13.8741 12.8493 13.3153C12.8493 12.7566 12.9511 12.2642 13.1547 11.8381C13.3606 11.4096 13.6471 11.0758 14.014 10.8366C14.3833 10.5952 14.8142 10.4744 15.3066 10.4744C15.5907 10.4744 15.8713 10.5218 16.1483 10.6165C16.4252 10.7112 16.6774 10.8651 16.9047 11.0781C17.1319 11.2888 17.313 11.5682 17.448 11.9162C17.5829 12.2642 17.6504 12.6927 17.6504 13.2017V13.5568H13.4458V12.8324H16.7981C16.7981 12.5246 16.7366 12.25 16.6135 12.0085C16.4927 11.767 16.3199 11.5765 16.095 11.4368C15.8725 11.2971 15.6097 11.2273 15.3066 11.2273C14.9728 11.2273 14.684 11.3101 14.4402 11.4759C14.1987 11.6392 14.0128 11.8523 13.8826 12.1151C13.7524 12.3778 13.6873 12.6596 13.6873 12.9602V13.4432C13.6873 13.8551 13.7583 14.2043 13.9004 14.4908C14.0448 14.7749 14.2449 14.9915 14.5005 15.1406C14.7562 15.2874 15.0533 15.3608 15.3919 15.3608C15.612 15.3608 15.8109 15.33 15.9885 15.2685C16.1684 15.2045 16.3234 15.1098 16.4537 14.9844C16.5839 14.8565 16.6845 14.6979 16.7555 14.5085L17.5652 14.7358C17.4799 15.0104 17.3367 15.2519 17.1355 15.4602C16.9342 15.6662 16.6857 15.8272 16.3897 15.9432C16.0938 16.0568 15.7612 16.1136 15.3919 16.1136Z" fill="white"/>
</svg>
