<svg width="24" height="24" viewBox="0 0 24 24" fill="none" xmlns="http://www.w3.org/2000/svg">
<circle cx="12" cy="12" r="12" fill="#0F80CC"/>
<path d="M12.858 10.5455C12.8153 10.1856 12.6425 9.90625 12.3395 9.70739C12.0365 9.50852 11.6648 9.40909 11.2244 9.40909C10.9025 9.40909 10.6207 9.46117 10.3793 9.56534C10.1402 9.66951 9.95313 9.81274 9.81818 9.99503C9.68561 10.1773 9.61932 10.3845 9.61932 10.6165C9.61932 10.8106 9.66548 10.9775 9.75781 11.1172C9.85251 11.2545 9.97325 11.3693 10.12 11.4616C10.2668 11.5516 10.4207 11.6262 10.5817 11.6854C10.7427 11.7422 10.8906 11.7884 11.0256 11.8239L11.7642 12.0227C11.9536 12.0724 12.1643 12.1411 12.3963 12.2287C12.6307 12.3163 12.8544 12.4358 13.0675 12.5874C13.2829 12.7365 13.4605 12.9283 13.6001 13.1626C13.7398 13.397 13.8097 13.6847 13.8097 14.0256C13.8097 14.4186 13.7067 14.7737 13.5007 15.0909C13.2971 15.4081 12.9988 15.6603 12.6058 15.8473C12.2152 16.0343 11.7405 16.1278 11.1818 16.1278C10.661 16.1278 10.21 16.0438 9.82884 15.8757C9.45005 15.7076 9.15175 15.4732 8.93395 15.1726C8.71851 14.8719 8.59659 14.5227 8.56818 14.125H9.47727C9.50095 14.3996 9.59328 14.6269 9.75426 14.8068C9.91761 14.9844 10.1236 15.117 10.3722 15.2045C10.6231 15.2898 10.893 15.3324 11.1818 15.3324C11.518 15.3324 11.8198 15.2779 12.0874 15.169C12.3549 15.0578 12.5668 14.9039 12.723 14.7074C12.8793 14.5085 12.9574 14.2765 12.9574 14.0114C12.9574 13.7699 12.8899 13.5734 12.755 13.4219C12.62 13.2704 12.4425 13.1473 12.2223 13.0526C12.0021 12.9579 11.7642 12.875 11.5085 12.804L10.6136 12.5483C10.0455 12.3849 9.59564 12.1518 9.2642 11.8487C8.93277 11.5457 8.76705 11.1491 8.76705 10.6591C8.76705 10.2519 8.87713 9.89678 9.0973 9.59375C9.31984 9.28835 9.61813 9.05161 9.99219 8.88352C10.3686 8.71307 10.7888 8.62784 11.2528 8.62784C11.7216 8.62784 12.1383 8.71188 12.5028 8.87997C12.8674 9.04569 13.1563 9.27296 13.3693 9.56179C13.5848 9.85062 13.6984 10.1785 13.7102 10.5455H12.858ZM15.9821 8.72727V16H15.144V8.72727H15.9821Z" fill="white"/>
</svg>
